Started on 2012-09-21 08:58:53 - 2012 Sep 21

Checking File ....
File : /home/wwwroot/files/conversion_queue/13481891241905f.flv
File Exists : Yes
raw_output : ffmpeg version 0.8.3-4:0.8.3-0ubuntu0.12.04.1, Copyright (c) 2000-2012 the Libav developers
  built on Jun 12 2012 16:37:58 with gcc 4.6.3
*** THIS PROGRAM IS DEPRECATED ***
This program is only provided for compatibility and will be removed in a future release. Please use avconv instead.
[flv @ 0x9ac0240] Estimating duration from bitrate, this may be inaccurate
Input #0, flv, from '/home/wwwroot/files/conversion_queue/13481891241905f.flv':
  Metadata:
    metadatacreator : modify by youku.com in 20090909
    hasKeyframes    : true
    hasVideo        : true
    hasAudio        : true
    hasMetadata     : true
    canSeekToEnd    : false
    datasize        : 6989697
    videosize       : 6010540
    audiosize       : 946465
    lasttimestamp   : 223
    lastkeyframetimestamp: 221
    lastkeyframelocation: 6920231
  Duration: 00:03:43.26, start: 0.000000, bitrate: 246 kb/s
    Stream #0.0: Video: h264 (High), yuv420p, 512x288 [PAR 513:512 DAR 57:32], 214 kb/s, 15 tbr, 1k tbn, 30 tbc
    Stream #0.1: Audio: aac, 44100 Hz, stereo, s16, 32 kb/s
Output #0, null, to '/dev/null':
  Metadata:
    metadatacreator : modify by youku.com in 20090909
    hasKeyframes    : true
    hasVideo        : true
    hasAudio        : true
    hasMetadata     : true
    canSeekToEnd    : false
    datasize        : 6989697
    videosize       : 6010540
    audiosize       : 946465
    lasttimestamp   : 223
    lastkeyframetimestamp: 221
    lastkeyframelocation: 6920231
    encoder         : Lavf53.21.0
    Stream #0.0: Video: libx264, yuv420p, 512x288 [PAR 513:512 DAR 57:32], q=2-31, 214 kb/s, 90k tbn, 15 tbc
    Stream #0.1: Audio: libvo_aacenc, 44100 Hz, stereo, 32 kb/s
Stream mapping:
  Stream #0.0 -> #0.0
  Stream #0.1 -> #0.1
Press ctrl-c to stop encoding
frame= 3350 fps=  0 q=-1.0 Lsize=      -0kB time=223.33 bitrate=  -0.0kbits/s    
video:5817kB audio:863kB global headers:0kB muxing overhead -100.000322%


Preparing file...
format : flv
duration : 223.26
size : 6991640
bitrate : 244
video_width : 512
video_height : 288
video_wh_ratio : 1.77777777778
video_codec : h264
video_rate : 15.004926991
video_bitrate : 208
video_color : N/A
audio_codec : aac
audio_bitrate : 30
audio_rate : 44100
audio_channels : stereo
path : /home/wwwroot/files/conversion_queue/13481891241905f.flv

Converting Video
Conversion Command : /usr/bin/ffmpeg -i /home/wwwroot/files/conversion_queue/13481891241905f.flv  -f flv  -vcodec libx264 -r 25  -ab 128000  -ar 22050  /home/wwwroot/files/videos/13481891241905f.flv  2> /home/wwwroot/files/temp/13481891343d271.tmp


Conversion Details

Flv Quick Conv;raw_output : ffmpeg version 0.8.3-4:0.8.3-0ubuntu0.12.04.1, Copyright (c) 2000-2012 the Libav developers
  built on Jun 12 2012 16:37:58 with gcc 4.6.3
*** THIS PROGRAM IS DEPRECATED ***
This program is only provided for compatibility and will be removed in a future release. Please use avconv instead.
[flv @ 0x8c71240] Estimating duration from bitrate, this may be inaccurate
Input #0, flv, from '/home/wwwroot/files/videos/13481891241905f.flv':
  Metadata:
    hasMetadata     : true
    datasize        : 6959045
    videosize       : 6010540
    hasKeyframes    : true
    audiosize       : 946465
    audiodelay      : 0
    hasCuePoints    : false
    canSeekToEnd    : false
    lastkeyframetimestamp: 221
    hasVideo        : true
    hasAudio        : true
    lasttimestamp   : 223
    metadatacreator : inlet media FLVTool2 v1.0.6 - http://www.inlet-media.de/flvtool2
  Duration: 00:03:43.33, start: 0.000000, bitrate: 251 kb/s
    Stream #0.0: Video: h264 (High), yuv420p, 512x288 [PAR 513:512 DAR 57:32], 219 kb/s, 15 tbr, 1k tbn, 30 tbc
    Stream #0.1: Audio: aac, 44100 Hz, stereo, s16, 32 kb/s
Output #0, null, to '/dev/null':
  Metadata:
    hasMetadata     : true
    datasize        : 6959045
    videosize       : 6010540
    hasKeyframes    : true
    audiosize       : 946465
    audiodelay      : 0
    hasCuePoints    : false
    canSeekToEnd    : false
    lastkeyframetimestamp: 221
    hasVideo        : true
    hasAudio        : true
    lasttimestamp   : 223
    metadatacreator : inlet media FLVTool2 v1.0.6 - http://www.inlet-media.de/flvtool2
    encoder         : Lavf53.21.0
    Stream #0.0: Video: libx264, yuv420p, 512x288 [PAR 513:512 DAR 57:32], q=2-31, 219 kb/s, 90k tbn, 15 tbc
    Stream #0.1: Audio: libvo_aacenc, 44100 Hz, stereo, 32 kb/s
Stream mapping:
  Stream #0.0 -> #0.0
  Stream #0.1 -> #0.1
Press ctrl-c to stop encoding
frame= 3350 fps=  0 q=-1.0 Lsize=      -0kB time=223.33 bitrate=  -0.0kbits/s    
video:5817kB audio:863kB global headers:0kB muxing overhead -100.000322%

raw_output : ffmpeg version 0.8.3-4:0.8.3-0ubuntu0.12.04.1, Copyright (c) 2000-2012 the Libav developers
  built on Jun 12 2012 16:37:58 with gcc 4.6.3
*** THIS PROGRAM IS DEPRECATED ***
This program is only provided for compatibility and will be removed in a future release. Please use avconv instead.
[flv @ 0x9b5d240] Estimating duration from bitrate, this may be inaccurate
Input #0, flv, from '/home/wwwroot/files/videos/13481891241905f.flv':
  Metadata:
    hasMetadata     : true
    datasize        : 6959045
    videosize       : 6010540
    hasKeyframes    : true
    audiosize       : 946465
    audiodelay      : 0
    hasCuePoints    : false
    canSeekToEnd    : false
    lastkeyframetimestamp: 221
    hasVideo        : true
    hasAudio        : true
    lasttimestamp   : 223
    metadatacreator : inlet media FLVTool2 v1.0.6 - http://www.inlet-media.de/flvtool2
  Duration: 00:03:43.33, start: 0.000000, bitrate: 251 kb/s
    Stream #0.0: Video: h264 (High), yuv420p, 512x288 [PAR 513:512 DAR 57:32], 219 kb/s, 15 tbr, 1k tbn, 30 tbc
    Stream #0.1: Audio: aac, 44100 Hz, stereo, s16, 32 kb/s
Output #0, null, to '/dev/null':
  Metadata:
    hasMetadata     : true
    datasize        : 6959045
    videosize       : 6010540
    hasKeyframes    : true
    audiosize       : 946465
    audiodelay      : 0
    hasCuePoints    : false
    canSeekToEnd    : false
    lastkeyframetimestamp: 221
    hasVideo        : true
    hasAudio        : true
    lasttimestamp   : 223
    metadatacreator : inlet media FLVTool2 v1.0.6 - http://www.inlet-media.de/flvtool2
    encoder         : Lavf53.21.0
    Stream #0.0: Video: libx264, yuv420p, 512x288 [PAR 513:512 DAR 57:32], q=2-31, 219 kb/s, 90k tbn, 15 tbc
    Stream #0.1: Audio: libvo_aacenc, 44100 Hz, stereo, 32 kb/s
Stream mapping:
  Stream #0.0 -> #0.0
  Stream #0.1 -> #0.1
Press ctrl-c to stop encoding
frame= 3350 fps=  0 q=-1.0 Lsize=      -0kB time=223.33 bitrate=  -0.0kbits/s    
video:5817kB audio:863kB global headers:0kB muxing overhead -100.000322%



output_format : flv
output_duration : 223.33
output_size : 6991758
output_bitrate : 244
output_video_width : 512
output_video_height : 288
output_video_wh_ratio : 1.77777777778
output_video_codec : h264
output_video_rate : 15.0002238839
output_video_bitrate : 208
output_video_color : N/A
output_audio_codec : aac
output_audio_bitrate : 30
output_audio_rate : 44100
output_audio_channels : stereo
output_path : /home/wwwroot/files/videos/13481891241905f.flv


Time Took : 2.08 seconds

conversion_status : completed
